.
 
http://www.scenetime.com    -   SceneTime [ We been having it ] !!!


How come you press harder on a remote control when you know the battery is dead? so you better seed to get speed ;)

        Seed back for speed


...................................NFO:.................................................*******************************************************************************
                 House.of.The.Rising.Sun.2011.BRRip.XviD-TVAL
*******************************************************************************

-------------------------------------------------------------------------------
                              General Information
-------------------------------------------------------------------------------
Type.................: Movie
Platform.............: BBRip
Part Size............: 972,042,348 bytes



Video Format.........: AVI
Genre................: Action

-------------------------------------------------------------------------------
                                 Release Notes
-------------------------------------------------------------------------------
House.of.The.Rising.Sun.2011.BRRip.XviD-TVAL

IMDB: http://www.imdb.com/title/tt1788383/

Plot: Ray, an ex-cop, is starting a new life looking to stay out of trouble. One 
evening, on Ray's watch, the nightclub he works for is robbed and the owner's 
son is shot dead. As his criminal past is exposed Ray hunts for the person 
responsible for this crime in an effort to clear his own name. Ray must get to 
the bottom of this as both the mob and cops start to close in on him as their 
target suspect.


General
Complete name                    : House.of.The.Rising.Sun.2011.BRRip.XviD-
TVAL.avi
Format                           : AVI
Format/Info                      : Audio Video Interleave
File size                        : 927 MiB
Duration                         : 1h 27mn
Overall bit rate                 : 1 480 Kbps

Video
ID                               : 0
Format                           : MPEG-4 Visual
Format profile                   : Advanced Simple@L5
Format settings, BVOP            : Yes
Format settings, QPel            : No
Format settings, GMC             : No warppoints
Format settings, Matrix          : Default (MPEG)
Codec ID                         : XVID
Codec ID/Hint                    : XviD
Duration                         : 1h 27mn
Bit rate                         : 1 214 Kbps
Width                            : 768 pixels
Height                           : 432 pixels
Display aspect ratio             : 16:9
Frame rate                       : 23.976 fps
Resolution                       : 8 bits
Colorimetry                      : 4:2:0
Scan type                        : Progressive
Bits/(Pixel*Frame)               : 0.153
Stream size                      : 761 MiB (82%)
Writing library                  : XviD 1.2.1 (UTC 2008-12-04)

Audio
ID                               : 1
Format                           : MPEG Audio
Format version                   : Version 1
Format profile                   : Layer 3
Codec ID                         : 55
Codec ID/Hint                    : MP3
Duration                         : 1h 27mn
Bit rate mode                    : Constant
Bit rate                         : 256 Kbps
Channel(s)                       : 2 channels
Sampling rate                    : 48.0 KHz
Stream size                      : 160 MiB (17%)
Alignment                        : Split accross interleaves
Interleave, duration             : 42 ms (1.00 video frame)
Writing library                  : LAMELAME_MAJOR_VERSI



-------------------------------------------------------------------------------
Generated with Cool NFO Creator - http://fly.to/coolbeans
-------------------------------------------------------------------------------